<?xml version="1.0" encoding="utf-8"?>
<!-- Generator: Adobe Illustrator 19.0.0, SVG Export Plug-In . SVG Version: 6.00 Build 0)  -->
<svg version="1.1" id="Layer_1" xmlns="http://www.w3.org/2000/svg" xmlns:xlink="http://www.w3.org/1999/xlink" x="0px" y="0px"
	 viewBox="0 0 170.1 63.2" style="enable-background:new 0 0 170.1 63.2;" xml:space="preserve">
<style type="text/css">
	.st0{fill:#CA2027;}
	.st1{fill:#2B2526;}
</style>
<path id="XMLID_31_" class="st0" d="M5.8,9.3v7.2H2v1.7h3.8v21.4c0,7.3,0.9,11.5,7.4,11.5c6.1,0,8.1-3.6,8.1-11.2
	c0-1.1-0.1-2.1-0.1-2.8h-1.5c0,0.5,0,0.8,0,0.9c0,7.2-0.9,10.8-4.3,10.8c-2.6,0-3.5-2.1-3.5-6.5c0-0.1,0-0.5,0-1.1V18.2h7.2v-1.7H12
	V9.3H5.8L5.8,9.3z M21.6,16.5v1.7h3.6v30.3h-3.6v1.7h13.5v-1.7h-3.6v-32H21.6L21.6,16.5z M24.1,8.2c0,2,1.7,3.6,3.8,3.6
	c2.1,0,3.6-1.7,3.6-3.7c0-2-1.7-3.5-3.7-3.5C25.7,4.6,24.1,6.2,24.1,8.2L24.1,8.2z M48.9,17.5c5.4,0,7.3,5.3,7.3,16
	c0,10.4-2.3,15.6-7.3,15.6c-5.2,0-7.5-5.1-7.5-15.3C41.4,22.9,43.7,17.5,48.9,17.5L48.9,17.5z M52.1,6h4.1v16.2
	c-1.4-4.3-4.2-6.5-8.3-6.5c-7.7,0-13.5,7.6-13.5,18c0,10.7,5.7,17.4,13.2,17.4c4.7,0,7.5-2.5,8.8-7.7v6.8h9.6v-1.7h-3.8V4.3H52.1V6
	L52.1,6z M67.3,16.5v1.7h3.6v30.3h-3.6v1.7h13.5v-1.7h-3.6v-32H67.3L67.3,16.5z M69.8,8.2c0,2,1.7,3.6,3.8,3.6
	c2.1,0,3.6-1.7,3.6-3.7c0-2-1.7-3.5-3.7-3.5C71.3,4.6,69.8,6.2,69.8,8.2L69.8,8.2z M82.2,50.1h13v-1.7h-3.5V30.1
	c0-8.1,3.1-12.5,7.4-12.5c4.7,0,4.8,3.9,4.8,10.6v20.3h-3.6v1.7h13v-1.7h-3.5V28.7c0-8.3-0.9-13.1-9.2-13.1c-4.3,0-8,2.6-9.2,6.6
	v-5.7h-9.2v1.7h3.5v30.3h-3.5V50.1L82.2,50.1z M134.9,16.5c-1.7-0.6-3.8-0.9-5.7-0.9c-6.8,0-11.7,4.8-11.7,10.7
	c0,2.5,0.9,5.1,2.2,7.1c-4.3,1.7-6.6,4.7-6.6,8.4c0,3.9,2.2,6.4,6.5,7.1c-3.1,1.1-4.7,3.2-4.7,5.7c0,4.4,4.9,7.7,12.7,7.7
	c9,0,14.9-5.1,14.9-10.2c0-5.3-3.8-7.3-11.2-7.6c-9.7-0.5-14.7-0.2-14.7-4.9c0-2.4,1.5-4.2,4.2-4.8c2.6,2,5.4,3,8.5,3
	c7,0,12-4.4,12-10.8c0-3.2-1.3-6.2-3.5-8.4h4.6v-1.9H134.9L134.9,16.5z M122.3,49.4c10.9,1.1,15.9-0.3,15.9,4.6
	c0,3.6-4,6.7-10.5,6.7c-5.7,0-9-2.3-9-6.1C118.8,52.3,119.9,50.9,122.3,49.4L122.3,49.4z M129.5,17c3.8,0,5.5,3.1,5.5,9.5
	c0,6.5-1.7,9.8-5.6,9.8c-4.2,0-5.5-3.4-5.5-10C123.8,20,125.3,17,129.5,17L129.5,17z M167.2,17.7c-3.3-1.4-6.8-2.1-9.9-2.1
	c-8.8,0-14,4.4-14,9.6c0,5,4.2,6.9,11.2,9.7c5.9,2.4,9,3.8,9,7.7c0,3.8-3.4,7-8.4,7c-5.9,0-6.5-2.4-8.7-12.4h-2.8v10.3
	c2.3,2.1,6.5,3.6,11.6,3.6c8.7,0,14.1-5,14.1-10.7c0-4.7-3-7.3-8.9-9.8c-7.3-3.2-11.4-4-11.4-8c0-3.2,3-5.5,7.9-5.5
	c5.4,0,5.1,1.8,7.8,10.5h2.5V17.7L167.2,17.7z"/>
<path id="XMLID_22_" class="st1" d="M82.9,8.1h-0.4v3.3c0.5,0.6,1.7,1,3.2,1c2.6,0,4.3-1.6,4.3-3.4c0-1.8-1.3-2.4-3.4-3.3
	c-1.8-0.8-3-1.2-3-2.5c0-1.1,1.1-1.9,2.6-1.9c1.8,0,1.9,0.8,2.7,3.4h0.4v-3c-1-0.4-2-0.7-2.8-0.7c-2.5,0-4,1.3-4,3
	c0,1.8,1.4,2.4,3.6,3.3c1.5,0.7,2.5,1.1,2.5,2.4c0,1.4-1.1,2.5-2.7,2.5C84,12,83.8,11.2,82.9,8.1L82.9,8.1z M90.6,12.2h3.1v-0.4
	h-0.8V7.3c0-1.9,0.7-3,1.8-3c1.1,0,1.2,0.9,1.2,2.6v4.9h-0.9v0.4h3.1v-0.4h-0.8V7c0-2-0.2-3.2-2.2-3.2c-1,0-1.9,0.6-2.2,1.6V1.1
	h-2.2v0.4h0.8v10.3h-0.8V12.2L90.6,12.2z M99.3,4.6v2.5h0.5c0.7-2.3,0.7-2.9,1.9-2.9c1.2,0,1.5,0.7,1.5,2.1V7
	c-0.5,0.5-1.3,0.7-2.2,0.9c-1.6,0.4-2.4,0.9-2.4,2.4c0,1.3,0.9,2.1,2.3,2.1c1.2,0,1.9-0.5,2.4-1.7v1.5h2.4v-0.4h-0.9V6.9
	c0-1,0-1.7-0.7-2.3c-0.4-0.4-1.2-0.7-2.2-0.7C100.8,3.9,100,4.2,99.3,4.6L99.3,4.6z M103.2,7.4v1.2c0,2.1-0.7,3.2-1.8,3.2
	c-0.8,0-1.3-0.6-1.3-1.7c0-0.9,0.3-1.5,1-1.8C101.7,8.1,102.5,7.9,103.2,7.4L103.2,7.4z M105.9,1.1v0.4h0.9v10.3h-0.9v0.4h3.3v-0.4
	h-0.9V1.1H105.9L105.9,1.1z M113.3,3.9c-1.9,0-3.5,1.8-3.5,4.3c0,2.5,1.5,4.3,3.5,4.3c1.9,0,3.5-1.8,3.5-4.3
	C116.8,5.6,115.2,3.9,113.3,3.9L113.3,3.9z M113.3,4.2c1.3,0,1.8,1.3,1.8,3.9c0,2.7-0.4,3.9-1.8,3.9c-1.3,0-1.8-1.3-1.8-3.9
	C111.5,5.5,112,4.2,113.3,4.2L113.3,4.2z M117.4,12.2h3.3v-0.4h-0.9V7.2c0-1.8,0.6-2.8,1.7-2.8c0.8,0,1.2,0.5,1.2,1.6
	c0,0.1,0,0.3,0,0.7v5H122v0.4h3.2v-0.4h-0.9V7.2c0-1.8,0.6-2.8,1.7-2.8c1.1,0,1.2,0.8,1.2,2.3v5h-0.8v0.4h3.2v-0.4h-0.9V7.1
	c0-2.1-0.3-3.2-2.2-3.2c-1.1,0-1.9,0.6-2.2,1.6c-0.2-1.1-0.9-1.6-2.1-1.6c-1.1,0-1.9,0.6-2.2,1.6V4.1h-2.3v0.4h0.9v7.3h-0.9V12.2
	L117.4,12.2z"/>
</svg>
